<?xml version="1.0" encoding="UTF-8" standalone="no"?>
<!DOCTYPE svg PUBLIC "-//W3C//DTD SVG 1.1//EN" "http://www.w3.org/Graphics/SVG/1.1/DTD/svg11.dtd">
<svg width="100%" height="100%" viewBox="0 0 15 14" version="1.1" xmlns="http://www.w3.org/2000/svg" xmlns:xlink="http://www.w3.org/1999/xlink" xml:space="preserve" xmlns:serif="http://www.serif.com/" style="fill-rule:evenodd;clip-rule:evenodd;stroke-linejoin:round;stroke-miterlimit:1.41421;">
    <g transform="matrix(1,0,0,1,-792,-1752.06)">
        <path id="Forma-1-copy-2" serif:id="Forma 1 copy 2" d="M805.856,1764.82L805.856,1761.41C805.856,1761.09 806.111,1760.83 806.427,1760.83C806.743,1760.83 806.998,1761.09 806.998,1761.41L806.998,1765.16C806.998,1765.21 806.983,1765.25 806.974,1765.29C806.984,1765.33 806.998,1765.37 806.998,1765.41C806.998,1765.74 806.743,1766 806.427,1766L792.572,1766C792.256,1766 792,1765.74 792,1765.41C792,1765.37 792.016,1765.33 792.025,1765.29C792.016,1765.25 792,1765.21 792,1765.16L792,1761.41C792,1761.09 792.256,1760.83 792.572,1760.83C792.888,1760.83 793.143,1761.09 793.143,1761.41L793.143,1764.82L805.856,1764.82ZM799.535,1763.24C799.851,1763.24 800.107,1762.98 800.107,1762.65L800.107,1754.06L802.595,1756.63C802.707,1756.74 802.853,1756.8 802.999,1756.8C803.145,1756.8 803.291,1756.74 803.403,1756.63C803.626,1756.39 803.626,1756.02 803.403,1755.79L799.939,1752.23C799.716,1752 799.355,1752 799.131,1752.23L795.668,1755.79C795.445,1756.02 795.445,1756.39 795.668,1756.63C795.779,1756.74 795.926,1756.8 796.072,1756.8C796.218,1756.8 796.364,1756.74 796.476,1756.63L798.964,1754.06L798.964,1762.65C798.964,1762.98 799.219,1763.24 799.535,1763.24Z" style="fill:white;"/>
    </g>
</svg>
