<?xml version="1.0" encoding="UTF-8" standalone="no"?>
<!DOCTYPE svg PUBLIC "-//W3C//DTD SVG 1.1//EN" "http://www.w3.org/Graphics/SVG/1.1/DTD/svg11.dtd">
<svg width="100%" height="100%" viewBox="0 0 15 15" version="1.1" xmlns="http://www.w3.org/2000/svg" xmlns:xlink="http://www.w3.org/1999/xlink" xml:space="preserve" xmlns:serif="http://www.serif.com/" style="fill-rule:evenodd;clip-rule:evenodd;stroke-linejoin:round;stroke-miterlimit:1.41421;">
    <g id="Forma-1" serif:id="Forma 1" transform="matrix(1,0,0,1,-161.987,-2265.99)">
        <path d="M170.798,2273.49L174.73,2269.55C175.092,2269.19 175.092,2268.61 174.73,2268.24C174.368,2267.88 173.781,2267.88 173.419,2268.24L169.487,2272.18L165.555,2268.24C165.193,2267.88 164.607,2267.88 164.245,2268.24C163.883,2268.61 163.883,2269.19 164.245,2269.55L168.177,2273.49L164.245,2277.42C163.883,2277.78 163.883,2278.37 164.245,2278.73C164.607,2279.09 165.193,2279.09 165.555,2278.73L169.487,2274.8L173.419,2278.73C173.781,2279.09 174.368,2279.09 174.73,2278.73C175.092,2278.37 175.092,2277.78 174.73,2277.42L170.798,2273.49Z" style="fill:white;fill-rule:nonzero;"/>
    </g>
</svg>
