<?xml version="1.0" encoding="UTF-8" standalone="no"?>
<!DOCTYPE svg PUBLIC "-//W3C//DTD SVG 1.1//EN" "http://www.w3.org/Graphics/SVG/1.1/DTD/svg11.dtd">
<svg width="100%" height="100%" viewBox="0 0 24 24" version="1.1" xmlns="http://www.w3.org/2000/svg" xmlns:xlink="http://www.w3.org/1999/xlink" xml:space="preserve" xmlns:serif="http://www.serif.com/" style="fill-rule:evenodd;clip-rule:evenodd;stroke-linejoin:round;stroke-miterlimit:1.41421;">
    <g id="Forma-1" serif:id="Forma 1" transform="matrix(1,0,0,1,-32.9998,-527)">
        <path d="M45,529C39.47,529 35,533.47 35,539C35,544.529 39.47,549 45,549C50.529,549 55,544.529 55,539C55,533.47 50.529,529 45,529ZM45,547.823C40.176,547.823 36.176,543.823 36.176,539C36.176,534.176 40.176,530.176 45,530.176C49.823,530.176 53.823,534.176 53.823,539C53.823,543.823 49.823,547.823 45,547.823ZM44.529,543.235C44.412,543.353 44.412,543.588 44.412,543.706C44.412,543.823 44.412,543.941 44.529,544.058C44.647,544.176 44.882,544.294 45,544.294C45.117,544.294 45.353,544.176 45.353,544.058C45.47,544.058 45.588,543.823 45.588,543.706C45.588,543.47 45.47,543.353 45.353,543.235C45.117,543 44.764,543 44.529,543.235ZM45.47,533.706C44.764,533.47 43.941,533.706 43.353,534.176C42.764,534.647 42.412,535.353 42.412,536.176C42.412,536.529 42.647,536.764 43,536.764C43.353,536.764 43.588,536.529 43.588,536.176C43.588,535.823 43.706,535.353 44.059,535.117C44.412,534.882 44.765,534.764 45.235,534.882C45.823,535 46.176,535.47 46.294,535.941C46.412,536.529 46.294,537 45.823,537.353C44.882,538.059 44.412,539.117 44.412,540.176C44.412,540.529 44.647,540.764 45,540.764C45.353,540.764 45.588,540.529 45.47,540.176C45.47,539.47 45.941,538.764 46.529,538.294C47.353,537.588 47.706,536.647 47.47,535.705C47.235,534.647 46.412,533.941 45.47,533.706Z" style="fill:white;fill-opacity:0.678431;"/>
    </g>
</svg>
