<?xml version="1.0" encoding="UTF-8" standalone="no"?>
<!DOCTYPE svg PUBLIC "-//W3C//DTD SVG 1.1//EN" "http://www.w3.org/Graphics/SVG/1.1/DTD/svg11.dtd">
<svg width="100%" height="100%" viewBox="0 0 15 15" version="1.1" xmlns="http://www.w3.org/2000/svg" xmlns:xlink="http://www.w3.org/1999/xlink" xml:space="preserve" xmlns:serif="http://www.serif.com/" style="fill-rule:evenodd;clip-rule:evenodd;stroke-linejoin:round;stroke-miterlimit:1.41421;">
    <g id="Forma-1" serif:id="Forma 1" transform="matrix(1,0,0,1,-160.499,-2127)">
        <path d="M170.82,2140.38L170.63,2141.24C170.061,2141.48 169.606,2141.67 169.268,2141.8C168.929,2141.93 168.535,2142 168.086,2142C167.397,2142 166.86,2141.81 166.478,2141.44C166.096,2141.07 165.904,2140.6 165.904,2140.03C165.904,2139.8 165.918,2139.58 165.947,2139.35C165.976,2139.11 166.023,2138.85 166.086,2138.56L166.797,2135.78C166.861,2135.51 166.915,2135.26 166.958,2135.02C167.001,2134.78 167.022,2134.57 167.022,2134.37C167.022,2134.01 166.956,2133.77 166.823,2133.63C166.691,2133.49 166.438,2133.42 166.062,2133.42C165.878,2133.42 165.689,2133.45 165.496,2133.51C165.303,2133.58 165.137,2133.64 164.999,2133.69L165.189,2132.84C165.655,2132.63 166.1,2132.45 166.527,2132.3C166.953,2132.15 167.356,2132.07 167.736,2132.07C168.421,2132.07 168.949,2132.26 169.32,2132.62C169.691,2132.99 169.876,2133.46 169.876,2134.05C169.876,2134.17 169.864,2134.38 169.838,2134.68C169.813,2134.99 169.765,2135.27 169.695,2135.52L168.987,2138.29C168.929,2138.51 168.877,2138.77 168.831,2139.05C168.784,2139.34 168.762,2139.56 168.762,2139.7C168.762,2140.07 168.836,2140.32 168.985,2140.45C169.135,2140.59 169.394,2140.66 169.76,2140.66C169.933,2140.66 170.129,2140.62 170.346,2140.55C170.564,2140.49 170.722,2140.43 170.82,2140.38ZM171,2128.75C171,2129.23 170.835,2129.64 170.504,2129.98C170.174,2130.32 169.776,2130.49 169.311,2130.49C168.844,2130.49 168.445,2130.32 168.111,2129.98C167.778,2129.64 167.611,2129.23 167.611,2128.75C167.611,2128.27 167.778,2127.86 168.111,2127.51C168.445,2127.17 168.844,2127 169.311,2127C169.776,2127 170.174,2127.17 170.504,2127.51C170.836,2127.86 171,2128.27 171,2128.75Z" style="fill:white;fill-rule:nonzero;"/>
    </g>
</svg>
