<?xml version="1.0" encoding="UTF-8" standalone="no"?>
<!DOCTYPE svg PUBLIC "-//W3C//DTD SVG 1.1//EN" "http://www.w3.org/Graphics/SVG/1.1/DTD/svg11.dtd">
<svg width="100%" height="100%" viewBox="0 0 19 24" version="1.1" xmlns="http://www.w3.org/2000/svg" xmlns:xlink="http://www.w3.org/1999/xlink" xml:space="preserve" xmlns:serif="http://www.serif.com/" style="fill-rule:evenodd;clip-rule:evenodd;stroke-linejoin:round;stroke-miterlimit:1.41421;">
    <g transform="matrix(1,0,0,1,-1256,-31)">
        <path id="Shape-1" serif:id="Shape 1" d="M1273.38,47.305C1271.99,45.933 1271.21,44.072 1271.21,42.132L1271.21,40.317C1271.21,37.431 1269.21,35.008 1266.51,34.34L1266.51,32.495C1266.51,31.669 1265.83,31 1265,31C1264.17,31 1263.49,31.669 1263.49,32.495L1263.49,34.34C1260.79,35.008 1258.78,37.431 1258.78,40.317L1258.78,42.132C1258.78,44.072 1258.01,45.933 1256.62,47.305C1256.01,47.908 1255.83,48.815 1256.16,49.603C1256.49,50.391 1257.27,50.905 1258.13,50.905L1261.88,50.905C1261.88,52.614 1263.28,54 1265,54C1266.73,54 1268.12,52.614 1268.12,50.905L1271.87,50.905C1272.73,50.905 1273.51,50.391 1273.84,49.603C1274.17,48.815 1273.99,47.908 1273.38,47.305ZM1265,52.481C1264.12,52.481 1263.41,51.774 1263.41,50.905L1266.59,50.905C1266.59,51.774 1265.88,52.481 1265,52.481ZM1272.42,49.022C1272.33,49.243 1272.11,49.385 1271.87,49.385L1258.13,49.385C1257.89,49.385 1257.67,49.243 1257.58,49.022C1257.49,48.801 1257.54,48.549 1257.71,48.38C1259.39,46.711 1260.32,44.492 1260.32,42.132L1260.32,40.317C1260.32,37.758 1262.42,35.676 1265,35.676C1267.58,35.676 1269.68,37.758 1269.68,40.317L1269.68,42.132C1269.68,44.492 1270.61,46.711 1272.29,48.38C1272.46,48.549 1272.51,48.801 1272.42,49.022Z" style="fill:rgb(135,135,135);fill-rule:nonzero;"/>
    </g>
</svg>
