<?xml version="1.0" encoding="UTF-8" standalone="no"?>
<!DOCTYPE svg PUBLIC "-//W3C//DTD SVG 1.1//EN" "http://www.w3.org/Graphics/SVG/1.1/DTD/svg11.dtd">
<svg width="100%" height="100%" viewBox="0 0 12 12" version="1.1" xmlns="http://www.w3.org/2000/svg" xmlns:xlink="http://www.w3.org/1999/xlink" xml:space="preserve" xmlns:serif="http://www.serif.com/" style="fill-rule:evenodd;clip-rule:evenodd;stroke-linejoin:round;stroke-miterlimit:1.41421;">
    <g transform="matrix(1,0,0,1,-1481.99,-2060.99)">
        <path id="Forma-1" serif:id="Forma 1" d="M1482.14,2061.9C1481.94,2061.7 1481.94,2061.36 1482.14,2061.14C1482.36,2060.93 1482.69,2060.93 1482.91,2061.14L1487.5,2065.73L1492.1,2061.14C1492.3,2060.93 1492.65,2060.93 1492.85,2061.14C1493.07,2061.36 1493.07,2061.7 1492.85,2061.9L1488.26,2066.48L1492.85,2071.07C1493.07,2071.28 1493.07,2071.62 1492.85,2071.83C1492.64,2072.04 1492.3,2072.04 1492.1,2071.83L1487.5,2067.25L1482.91,2071.83C1482.69,2072.04 1482.36,2072.04 1482.14,2071.83C1481.94,2071.62 1481.94,2071.28 1482.14,2071.07L1486.73,2066.48L1482.14,2061.9Z" style="fill-opacity:0.501961;fill-rule:nonzero;"/>
    </g>
</svg>
