<?xml version="1.0" encoding="UTF-8" standalone="no"?>
<!DOCTYPE svg PUBLIC "-//W3C//DTD SVG 1.1//EN" "http://www.w3.org/Graphics/SVG/1.1/DTD/svg11.dtd">
<svg width="100%" height="100%" viewBox="0 0 16 16" version="1.1" xmlns="http://www.w3.org/2000/svg" xmlns:xlink="http://www.w3.org/1999/xlink" xml:space="preserve" xmlns:serif="http://www.serif.com/" style="fill-rule:evenodd;clip-rule:evenodd;stroke-linejoin:round;stroke-miterlimit:1.41421;">
    <g id="Forma-1-copy-2" serif:id="Forma 1 copy 2" transform="matrix(1,0,0,1,-1490,-421.999)">
        <path d="M1499.59,421.998C1499.86,421.999 1500.12,422.089 1500.38,422.269C1500.63,422.45 1500.81,422.669 1500.91,422.926L1501.61,424.665L1504.68,424.665C1504.78,424.665 1504.85,424.697 1504.91,424.759C1504.97,424.821 1505,424.901 1505,424.999L1505,425.665C1505,425.763 1504.97,425.843 1504.91,425.905C1504.85,425.968 1504.78,425.999 1504.68,425.999L1503.73,425.999L1503.73,435.876C1503.73,436.451 1503.57,436.95 1503.26,437.37C1502.95,437.79 1502.58,438 1502.14,438L1493.86,438C1493.42,438 1493.05,437.797 1492.74,437.391C1492.43,436.985 1492.27,436.493 1492.27,435.917L1492.27,425.999L1491.32,425.999C1491.22,425.998 1491.15,425.967 1491.09,425.905C1491.03,425.843 1491,425.763 1491,425.665L1491,424.999C1491,424.901 1491.03,424.821 1491.09,424.759C1491.15,424.697 1491.22,424.666 1491.32,424.665L1494.39,424.665L1495.09,422.926C1495.18,422.669 1495.36,422.45 1495.62,422.269C1495.88,422.089 1496.14,421.999 1496.41,421.998L1499.59,421.998ZM1502.14,436.667C1502.16,436.666 1502.19,436.636 1502.24,436.578C1502.29,436.519 1502.34,436.426 1502.39,436.297C1502.43,436.169 1502.45,436.028 1502.45,435.875L1502.45,425.999L1493.54,425.999L1493.54,435.875C1493.54,436.028 1493.57,436.169 1493.61,436.297C1493.66,436.426 1493.71,436.519 1493.76,436.578C1493.81,436.638 1493.84,436.667 1493.86,436.667L1502.14,436.667ZM1495.77,427.999C1495.87,428 1495.94,428.031 1496,428.093C1496.06,428.155 1496.09,428.235 1496.09,428.332L1496.09,434.333C1496.09,434.431 1496.06,434.51 1496,434.573C1495.94,434.635 1495.87,434.667 1495.77,434.667L1495.13,434.667C1495.04,434.667 1494.97,434.635 1494.91,434.573C1494.85,434.51 1494.82,434.431 1494.82,434.333L1494.82,428.332C1494.82,428.235 1494.85,428.155 1494.91,428.093C1494.97,428.031 1495.04,428 1495.13,427.999L1495.77,427.999ZM1498.32,427.999C1498.41,428 1498.49,428.031 1498.55,428.093C1498.61,428.155 1498.64,428.235 1498.64,428.332L1498.64,434.333C1498.64,434.431 1498.61,434.51 1498.55,434.573C1498.49,434.635 1498.41,434.667 1498.32,434.667L1497.68,434.667C1497.59,434.667 1497.51,434.635 1497.45,434.573C1497.39,434.51 1497.36,434.431 1497.36,434.333L1497.36,428.332C1497.36,428.235 1497.39,428.155 1497.45,428.093C1497.51,428.031 1497.59,428 1497.68,427.999L1498.32,427.999ZM1500.86,427.999C1500.96,428 1501.03,428.031 1501.09,428.093C1501.15,428.155 1501.18,428.235 1501.18,428.332L1501.18,434.333C1501.18,434.431 1501.15,434.51 1501.09,434.573C1501.03,434.635 1500.96,434.667 1500.86,434.667L1500.23,434.667C1500.13,434.667 1500.06,434.635 1500,434.573C1499.94,434.51 1499.91,434.431 1499.91,434.333L1499.91,428.332C1499.91,428.235 1499.94,428.155 1500,428.093C1500.06,428.031 1500.13,428 1500.23,427.999L1500.86,427.999ZM1500.23,424.665L1499.75,423.446C1499.7,423.384 1499.65,423.346 1499.58,423.332L1496.43,423.332C1496.36,423.346 1496.31,423.384 1496.26,423.446L1495.77,424.665L1500.23,424.665Z" style="fill:rgb(117,117,117);"/>
    </g>
</svg>
