<?xml version="1.0" encoding="UTF-8" standalone="no"?>
<!DOCTYPE svg PUBLIC "-//W3C//DTD SVG 1.1//EN" "http://www.w3.org/Graphics/SVG/1.1/DTD/svg11.dtd">
<svg width="100%" height="100%" viewBox="0 0 24 24" version="1.1" xmlns="http://www.w3.org/2000/svg" xmlns:xlink="http://www.w3.org/1999/xlink" xml:space="preserve" xmlns:serif="http://www.serif.com/" style="fill-rule:evenodd;clip-rule:evenodd;stroke-linejoin:round;stroke-miterlimit:1.41421;">
    <g id="Forma-1" serif:id="Forma 1" transform="matrix(1,0,0,1,-32.9998,-116.992)">
        <path d="M35.028,137.961C33.744,136.115 33.001,133.91 33.001,131.539C33.001,125.158 38.372,119.987 44.999,119.987C51.628,119.987 57.001,125.158 56.999,131.54C56.999,133.917 56.251,136.126 54.974,137.961L53.342,137.961C53.351,137.95 53.363,137.937 53.369,137.926L51.345,135.974L52.421,134.936L54.242,136.687C55.157,135.173 55.688,133.419 55.688,131.54L55.673,131.277L53.201,131.277L53.201,129.809L55.522,129.806C55.218,128.082 54.475,126.506 53.397,125.188L51.712,126.81L50.632,125.772L52.369,124.097C50.564,122.44 48.16,121.392 45.5,121.275L45.5,123.938L43.973,123.939L43.972,121.299C41.59,121.518 39.443,122.496 37.777,123.972L39.474,125.606L38.396,126.644L36.721,125.033C35.577,126.381 34.792,128.015 34.477,129.806L36.711,129.806L36.711,131.275L34.326,131.277C34.324,131.367 34.313,131.449 34.313,131.539C34.313,133.425 34.85,135.189 35.771,136.71L37.71,135.077L38.715,136.184L36.635,137.932C36.644,137.94 36.649,137.953 36.658,137.961L36.601,137.961L36.558,137.997L36.526,137.961L35.028,137.961ZM45.416,133.445C46.013,133.445 46.499,132.975 46.499,132.399C46.499,131.825 46.013,131.359 45.416,131.359L40.511,127.885L44.333,132.467C44.369,133.012 44.841,133.445 45.416,133.445Z" style="fill:white;"/>
    </g>
</svg>
