<?xml version="1.0" encoding="UTF-8" standalone="no"?>
<!DOCTYPE svg PUBLIC "-//W3C//DTD SVG 1.1//EN" "http://www.w3.org/Graphics/SVG/1.1/DTD/svg11.dtd">
<svg width="100%" height="100%" viewBox="0 0 24 24" version="1.1" xmlns="http://www.w3.org/2000/svg" xmlns:xlink="http://www.w3.org/1999/xlink" xml:space="preserve" xmlns:serif="http://www.serif.com/" style="fill-rule:evenodd;clip-rule:evenodd;stroke-linejoin:round;stroke-miterlimit:1.41421;">
    <g id="Forma-1" serif:id="Forma 1" transform="matrix(1,0,0,1,-32.9998,-361.5)">
        <path d="M52.125,362L52.125,367.591L54,369.508L54,385L37.875,385L37.875,383.083L36,383.083L36,362L52.125,362ZM48,370.05L48,364.683L38.625,364.683L38.625,384.233L53.25,384.233L53.25,370.05L48,370.05ZM48.53,363.916L51.375,366.824L51.375,362.766L36.75,362.766L36.75,382.316L37.875,382.316L37.875,363.916L48.53,363.916ZM50.625,380.783C50.832,380.783 51,380.954 51,381.166C51,381.378 50.832,381.549 50.625,381.55L41.25,381.55C41.043,381.55 40.875,381.378 40.875,381.166C40.875,380.954 41.042,380.783 41.25,380.783L50.625,380.783ZM50.625,377.716C50.832,377.717 51,377.888 51,378.1C51,378.311 50.832,378.483 50.625,378.483L41.25,378.483C41.043,378.483 40.875,378.312 40.875,378.1C40.875,377.888 41.042,377.717 41.25,377.716L50.625,377.716ZM50.625,374.65C50.832,374.65 51,374.821 51,375.033C51,375.245 50.832,375.416 50.625,375.416L41.25,375.416C41.043,375.416 40.875,375.245 40.875,375.033C40.875,374.821 41.042,374.65 41.25,374.65L50.625,374.65ZM50.625,371.583C50.832,371.583 51,371.755 51,371.966C51,372.178 50.832,372.349 50.625,372.35L41.25,372.35C41.043,372.35 40.875,372.178 40.875,371.966C40.875,371.755 41.042,371.583 41.25,371.583L50.625,371.583ZM45,368.516C45.207,368.517 45.375,368.688 45.375,368.9C45.375,369.111 45.207,369.282 45,369.283L41.25,369.283C41.043,369.283 40.875,369.112 40.875,368.9C40.875,368.688 41.042,368.517 41.25,368.516L45,368.516ZM52.72,369.283L52.125,368.675L48.75,365.225L48.75,369.283L52.72,369.283Z" style="fill:white;fill-opacity:0.678431;"/>
    </g>
</svg>
