<?xml version="1.0" encoding="UTF-8" standalone="no"?>
<!DOCTYPE svg PUBLIC "-//W3C//DTD SVG 1.1//EN" "http://www.w3.org/Graphics/SVG/1.1/DTD/svg11.dtd">
<svg width="100%" height="100%" viewBox="0 0 16 16" version="1.1" xmlns="http://www.w3.org/2000/svg" xmlns:xlink="http://www.w3.org/1999/xlink" xml:space="preserve" xmlns:serif="http://www.serif.com/" style="fill-rule:evenodd;clip-rule:evenodd;stroke-linejoin:round;stroke-miterlimit:1.41421;">
    <g id="Forma-1-copy-2" serif:id="Forma 1 copy 2" transform="matrix(1,0,0,1,-1457.51,-422.006)">
        <path d="M1464.72,422.736C1465.06,422.742 1465.33,423.016 1465.33,423.351C1465.33,423.689 1465.06,423.965 1464.72,423.965L1459.22,423.965L1459.22,436.77L1469.4,436.77L1469.4,431.648C1469.4,431.31 1469.68,431.033 1470.01,431.033C1470.35,431.033 1470.62,431.31 1470.62,431.648L1470.62,437.385C1470.62,437.723 1470.35,438 1470.01,438L1458.61,438C1458.28,438 1458,437.723 1458,437.385L1458,423.351C1458,423.016 1458.27,422.742 1458.61,422.736L1464.72,422.736ZM1468.94,422.183L1462.83,428.339C1462.71,428.452 1462.65,428.606 1462.64,428.769L1462.6,431.915C1462.6,432.079 1462.66,432.252 1462.79,432.365C1462.9,432.478 1463.06,432.57 1463.21,432.57L1463.22,432.57L1466.25,432.509C1466.41,432.509 1466.56,432.417 1466.67,432.304L1472.84,426.096C1473.08,425.86 1473.08,425.471 1472.84,425.225L1469.82,422.183C1469.57,421.947 1469.18,421.947 1468.94,422.183ZM1465.97,431.259L1463.83,431.289L1463.86,429.036L1466.98,425.901L1469.13,428.094L1465.97,431.259ZM1469.99,427.213L1467.85,425.02L1469.37,423.484L1471.53,425.656L1469.99,427.213Z" style="fill:rgb(117,117,117);"/>
    </g>
</svg>
