<?xml version="1.0" encoding="UTF-8" standalone="no"?>
<!DOCTYPE svg PUBLIC "-//W3C//DTD SVG 1.1//EN" "http://www.w3.org/Graphics/SVG/1.1/DTD/svg11.dtd">
<svg width="100%" height="100%" viewBox="0 0 20 20" version="1.1" xmlns="http://www.w3.org/2000/svg" xmlns:xlink="http://www.w3.org/1999/xlink" xml:space="preserve" xmlns:serif="http://www.serif.com/" style="fill-rule:evenodd;clip-rule:evenodd;stroke-linejoin:round;stroke-miterlimit:1.41421;">
    <g id="Shape-1" serif:id="Shape 1" transform="matrix(1,0,0,1,-1326,-192)">
        <path d="M1338.82,193C1335.41,193 1332.64,195.729 1332.64,199.084C1332.64,199.829 1332.78,200.554 1333.04,201.242L1327.13,207.06C1327.05,207.143 1327,207.256 1327,207.373L1327,210.557C1327,210.801 1327.2,211 1327.45,211L1330.12,211C1330.23,211 1330.35,210.953 1330.43,210.87L1331.33,209.988C1331.42,209.904 1331.46,209.792 1331.46,209.674L1331.46,208.588L1332.56,208.588C1332.81,208.588 1333.02,208.39 1333.02,208.145L1333.02,207.71L1333.46,207.71C1333.7,207.71 1333.91,207.512 1333.91,207.267L1333.91,206.313L1334.88,206.313C1335,206.313 1335.11,206.266 1335.19,206.183L1336.63,204.773C1337.33,205.035 1338.06,205.167 1338.82,205.167C1342.23,205.167 1345,202.438 1345,199.084C1345,195.729 1342.23,193 1338.82,193ZM1334.69,205.426L1336.2,203.937C1336.2,203.936 1336.2,203.935 1336.21,203.934C1336.33,203.811 1336.53,203.77 1336.7,203.845C1337.37,204.134 1338.08,204.281 1338.82,204.281C1341.73,204.281 1344.1,201.949 1344.1,199.084C1344.1,196.218 1341.73,193.887 1338.82,193.887C1335.91,193.887 1333.54,196.218 1333.54,199.084C1333.54,199.809 1333.69,200.511 1333.98,201.17C1334.06,201.34 1334.02,201.532 1333.89,201.657C1333.89,201.658 1333.89,201.66 1333.89,201.661L1327.9,207.557L1327.9,208.358L1332.83,203.503C1332.99,203.347 1333.25,203.348 1333.4,203.503C1333.56,203.659 1333.56,203.912 1333.4,204.068L1327.9,209.487L1327.9,210.113L1329.93,210.113L1330.56,209.49L1330.56,208.145C1330.56,207.901 1330.76,207.703 1331.01,207.702L1332.11,207.702L1332.11,207.267C1332.11,207.023 1332.31,206.826 1332.57,206.824L1333.01,206.824L1333.01,205.87C1333.01,205.626 1333.21,205.428 1333.46,205.426L1334.69,205.426ZM1340.7,195.571C1339.77,195.571 1339.01,196.316 1339.01,197.232C1339.01,198.148 1339.77,198.893 1340.7,198.893C1341.63,198.893 1342.39,198.148 1342.39,197.232C1342.39,196.316 1341.63,195.571 1340.7,195.571ZM1340.7,198.006C1340.27,198.006 1339.91,197.659 1339.91,197.232C1339.91,196.805 1340.27,196.458 1340.7,196.458C1341.13,196.458 1341.49,196.805 1341.49,197.232C1341.49,197.659 1341.13,198.006 1340.7,198.006Z" style="fill:rgb(135,135,135);"/>
    </g>
</svg>
