<?xml version="1.0" encoding="UTF-8" standalone="no"?>
<!DOCTYPE svg PUBLIC "-//W3C//DTD SVG 1.1//EN" "http://www.w3.org/Graphics/SVG/1.1/DTD/svg11.dtd">
<svg width="100%" height="100%" viewBox="0 0 20 20" version="1.1" xmlns="http://www.w3.org/2000/svg" xmlns:xlink="http://www.w3.org/1999/xlink" xml:space="preserve" xmlns:serif="http://www.serif.com/" style="fill-rule:evenodd;clip-rule:evenodd;stroke-linejoin:round;stroke-miterlimit:1.41421;">
    <g id="Forma-1" serif:id="Forma 1" transform="matrix(1,0,0,1,-1327,-230)">
        <path d="M1335,232.84L1335,234.153C1332.24,235.03 1330.23,237.673 1330.23,240.789C1330.23,244.62 1333.27,247.737 1337,247.737C1340.73,247.737 1343.77,244.62 1343.77,240.789C1343.77,237.673 1341.76,235.03 1339,234.153L1339,232.84C1339.08,232.861 1339.16,232.883 1339.24,232.907C1339.24,232.908 1339.25,232.907 1339.25,232.908C1339.26,232.912 1339.28,232.918 1339.29,232.922C1339.48,232.979 1339.66,233.042 1339.84,233.112C1339.87,233.123 1339.89,233.135 1339.92,233.146C1342.69,234.261 1344.7,236.913 1344.97,240.079C1344.97,240.108 1344.97,240.137 1344.98,240.166C1344.99,240.372 1345,240.579 1345,240.789C1345,245.324 1341.42,249 1337,249C1332.58,249 1329,245.324 1329,240.789C1329,240.579 1329.01,240.371 1329.03,240.165C1329.03,240.136 1329.03,240.107 1329.03,240.078C1329.26,237.355 1330.78,235.012 1332.97,233.7C1332.97,233.698 1332.97,233.696 1332.98,233.695C1333.33,233.482 1333.7,233.298 1334.09,233.143C1334.12,233.131 1334.14,233.12 1334.17,233.109C1334.35,233.039 1334.53,232.976 1334.72,232.919C1334.73,232.915 1334.75,232.909 1334.76,232.905C1334.76,232.904 1334.77,232.905 1334.77,232.904C1334.85,232.881 1334.92,232.86 1335,232.84ZM1337,240.158C1337.34,240.158 1337.62,239.875 1337.62,239.526L1337.62,231.631C1337.62,231.283 1337.34,231 1337,231C1336.66,231 1336.38,231.283 1336.38,231.631L1336.38,239.526C1336.38,239.875 1336.66,240.158 1337,240.158Z" style="fill:rgb(135,135,135);"/>
    </g>
</svg>
