<?xml version="1.0" encoding="UTF-8" standalone="no"?>
<!DOCTYPE svg PUBLIC "-//W3C//DTD SVG 1.1//EN" "http://www.w3.org/Graphics/SVG/1.1/DTD/svg11.dtd">
<svg width="100%" height="100%" viewBox="0 0 24 24" version="1.1" xmlns="http://www.w3.org/2000/svg" xmlns:xlink="http://www.w3.org/1999/xlink" xml:space="preserve" xmlns:serif="http://www.serif.com/" style="fill-rule:evenodd;clip-rule:evenodd;stroke-linejoin:round;stroke-miterlimit:1.41421;">
    <g id="Forma-1" serif:id="Forma 1" transform="matrix(1,0,0,1,-32.9998,-197.015)">
        <path d="M53.599,213.392C53.008,212.802 52.019,212.287 50.459,211.508C49.673,211.116 48.364,210.463 48.047,210.163C49.375,208.533 50.146,206.692 50.146,205.08C50.146,203.986 50.146,202.625 49.533,201.411C48.981,200.318 47.745,199.015 45,199.015C42.254,199.015 41.019,200.318 40.467,201.411C39.853,202.625 39.853,203.986 39.853,205.08C39.853,206.692 40.623,208.533 41.953,210.163C41.635,210.463 40.326,211.116 39.54,211.508C37.981,212.287 36.992,212.802 36.4,213.392C35.09,214.701 34.991,216.896 34.984,217.323C34.978,217.769 35.15,218.2 35.464,218.518C35.777,218.836 36.207,219.015 36.653,219.015L53.346,219.015C53.794,219.015 54.222,218.836 54.535,218.518C54.849,218.2 55.022,217.769 55.015,217.323C55.009,216.896 54.909,214.701 53.599,213.392ZM53.644,217.641C53.564,217.721 53.458,217.765 53.346,217.765L36.653,217.765C36.542,217.765 36.434,217.72 36.356,217.641C36.279,217.562 36.235,217.454 36.236,217.342C36.239,217.133 36.297,215.264 37.285,214.277C37.741,213.821 38.696,213.328 40.1,212.626C41.599,211.878 42.43,211.433 42.812,211.072L43.657,210.274L42.924,209.374C41.768,207.957 41.105,206.391 41.105,205.08C41.105,204.068 41.105,202.923 41.584,201.974C42.158,200.84 43.306,200.265 45,200.265C46.692,200.265 47.842,200.84 48.415,201.974C48.895,202.923 48.895,204.068 48.895,205.08C48.895,206.391 48.232,207.956 47.075,209.374L46.341,210.275L47.186,211.072C47.569,211.432 48.4,211.878 49.899,212.626C51.303,213.327 52.258,213.821 52.714,214.277C53.518,215.079 53.752,216.581 53.763,217.343C53.765,217.454 53.721,217.562 53.644,217.641Z" style="fill:white;fill-opacity:0.678431;fill-rule:nonzero;"/>
    </g>
</svg>
