<?xml version="1.0" encoding="UTF-8" standalone="no"?>
<!DOCTYPE svg PUBLIC "-//W3C//DTD SVG 1.1//EN" "http://www.w3.org/Graphics/SVG/1.1/DTD/svg11.dtd">
<svg width="100%" height="100%" viewBox="0 0 18 18" version="1.1" xmlns="http://www.w3.org/2000/svg" xmlns:xlink="http://www.w3.org/1999/xlink" xml:space="preserve" xmlns:serif="http://www.serif.com/" style="fill-rule:evenodd;clip-rule:evenodd;stroke-linejoin:round;stroke-miterlimit:1.41421;">
    <g transform="matrix(1,0,0,1,-894.001,-35.0006)">
        <path id="Forma-1" serif:id="Forma 1" d="M911.822,52.014L907.177,47.443C908.393,46.121 909.14,44.373 909.14,42.45C909.14,38.335 905.751,35.001 901.57,35.001C897.389,35.001 894.001,38.335 894.001,42.45C894.001,46.564 897.389,49.899 901.57,49.899C903.376,49.899 905.033,49.274 906.334,48.236L910.998,52.825C911.225,53.049 911.594,53.049 911.821,52.825C912.049,52.601 912.049,52.237 911.822,52.014ZM901.57,48.753C898.033,48.753 895.165,45.931 895.165,42.45C895.165,38.969 898.033,36.147 901.57,36.147C905.107,36.147 907.975,38.969 907.975,42.45C907.975,45.931 905.107,48.753 901.57,48.753Z" style="fill:rgb(135,135,135);fill-rule:nonzero;"/>
    </g>
</svg>
