<?xml version="1.0" encoding="UTF-8" standalone="no"?>
<!DOCTYPE svg PUBLIC "-//W3C//DTD SVG 1.1//EN" "http://www.w3.org/Graphics/SVG/1.1/DTD/svg11.dtd">
<svg width="100%" height="100%" viewBox="0 0 24 24" version="1.1" xmlns="http://www.w3.org/2000/svg" xmlns:xlink="http://www.w3.org/1999/xlink" xml:space="preserve" xmlns:serif="http://www.serif.com/" style="fill-rule:evenodd;clip-rule:evenodd;stroke-linejoin:round;stroke-miterlimit:1.41421;">
    <g id="Shape-1" serif:id="Shape 1" transform="matrix(1,0,0,1,-32.9998,-279)">
        <path d="M45.894,281C46.413,281.003 46.855,281.385 46.931,281.891C46.987,282.267 47.041,282.653 47.092,283.039C47.098,283.086 47.129,283.123 47.172,283.135C47.818,283.313 48.441,283.571 49.024,283.902C49.063,283.925 49.112,283.92 49.149,283.891C49.458,283.654 49.769,283.419 50.075,283.193C50.488,282.888 51.074,282.932 51.439,283.297L52.703,284.561C53.067,284.925 53.112,285.511 52.806,285.925C52.58,286.231 52.345,286.542 52.108,286.85C52.079,286.887 52.075,286.937 52.097,286.976C52.428,287.559 52.686,288.182 52.864,288.827C52.876,288.87 52.914,288.902 52.961,288.908C53.346,288.958 53.732,289.012 54.108,289.068C54.616,289.144 55,289.59 55,290.106L55,291.894C55,292.409 54.616,292.855 54.108,292.931C53.732,292.987 53.346,293.041 52.961,293.091C52.914,293.097 52.876,293.129 52.864,293.172C52.686,293.817 52.428,294.44 52.097,295.023C52.075,295.063 52.079,295.112 52.108,295.149C52.345,295.457 52.58,295.769 52.806,296.075C53.112,296.488 53.067,297.074 52.703,297.439L51.439,298.703C51.074,299.067 50.488,299.112 50.075,298.806C49.769,298.58 49.458,298.345 49.149,298.108C49.112,298.079 49.063,298.075 49.023,298.097C48.441,298.428 47.818,298.686 47.172,298.864C47.129,298.876 47.098,298.914 47.092,298.96C47.041,299.346 46.987,299.732 46.931,300.108C46.855,300.616 46.409,301 45.894,301L44.106,301C43.59,301 43.145,300.616 43.068,300.108C43.012,299.733 42.958,299.347 42.908,298.961C42.902,298.914 42.87,298.876 42.827,298.864C42.182,298.686 41.559,298.428 40.976,298.097C40.937,298.075 40.888,298.079 40.85,298.108C40.542,298.345 40.23,298.58 39.925,298.806C39.512,299.112 38.925,299.067 38.561,298.703L37.297,297.439C36.932,297.074 36.888,296.488 37.193,296.075C37.42,295.769 37.655,295.458 37.892,295.149C37.92,295.112 37.925,295.063 37.902,295.023C37.571,294.44 37.313,293.818 37.135,293.172C37.124,293.129 37.086,293.098 37.039,293.092C36.654,293.041 36.268,292.987 35.891,292.931C35.383,292.855 35,292.409 35,291.894L35,290.106C35,289.59 35.383,289.144 35.891,289.068C36.268,289.012 36.654,288.958 37.039,288.908C37.086,288.902 37.124,288.87 37.135,288.827C37.313,288.182 37.571,287.559 37.902,286.976C37.925,286.937 37.921,286.887 37.892,286.85C37.655,286.542 37.42,286.231 37.193,285.925C36.888,285.512 36.932,284.925 37.297,284.561L38.561,283.297C38.925,282.932 39.511,282.888 39.925,283.193C40.23,283.419 40.542,283.654 40.85,283.891C40.888,283.92 40.937,283.925 40.976,283.902C41.559,283.571 42.182,283.313 42.827,283.135C42.87,283.123 42.902,283.086 42.908,283.039C42.958,282.653 43.012,282.267 43.069,281.891C43.144,281.385 43.586,281.003 44.106,281L45.894,281ZM54.066,291.894L54.066,290.106C54.066,290.049 54.025,290 53.97,289.992C53.6,289.937 53.22,289.883 52.84,289.834C52.42,289.779 52.076,289.481 51.964,289.075C51.807,288.504 51.578,287.953 51.285,287.437C51.077,287.071 51.109,286.617 51.368,286.281C51.601,285.977 51.833,285.671 52.055,285.369C52.088,285.325 52.083,285.261 52.043,285.221L50.778,283.957C50.738,283.917 50.675,283.911 50.63,283.944C50.33,284.167 50.023,284.398 49.719,284.632C49.383,284.89 48.929,284.923 48.562,284.715C48.046,284.421 47.495,284.193 46.924,284.036C46.518,283.924 46.22,283.58 46.166,283.16C46.116,282.779 46.063,282.399 46.008,282.029C45.999,281.975 45.95,281.933 45.894,281.933L44.106,281.933C44.049,281.933 44,281.975 43.992,282.029C43.937,282.399 43.884,282.78 43.834,283.16C43.779,283.58 43.481,283.924 43.075,284.036C42.504,284.193 41.953,284.421 41.437,284.715C41.071,284.923 40.617,284.89 40.281,284.632C39.977,284.398 39.67,284.167 39.369,283.944C39.325,283.911 39.261,283.917 39.221,283.957L37.957,285.221C37.917,285.261 37.912,285.325 37.944,285.369C38.168,285.671 38.399,285.978 38.632,286.281C38.89,286.617 38.923,287.071 38.715,287.437C38.421,287.953 38.193,288.505 38.036,289.075C37.924,289.481 37.58,289.779 37.16,289.834C36.78,289.884 36.4,289.937 36.03,289.992C35.975,290 35.934,290.049 35.934,290.106L35.934,291.894C35.934,291.951 35.975,291.999 36.03,292.008C36.4,292.063 36.78,292.116 37.16,292.166C37.58,292.221 37.924,292.518 38.036,292.924C38.193,293.495 38.421,294.046 38.715,294.562C38.923,294.929 38.89,295.383 38.632,295.719C38.398,296.023 38.167,296.329 37.944,296.63C37.911,296.675 37.917,296.738 37.957,296.778L39.221,298.043C39.261,298.083 39.325,298.088 39.369,298.055C39.67,297.833 39.977,297.602 40.281,297.368C40.469,297.223 40.695,297.149 40.922,297.149C41.099,297.149 41.276,297.194 41.437,297.285C41.953,297.578 42.504,297.807 43.075,297.964C43.481,298.076 43.779,298.42 43.834,298.84C43.884,299.22 43.937,299.6 43.992,299.97C44,300.025 44.049,300.066 44.106,300.066L45.894,300.066C45.955,300.062 46,300.022 46.008,299.97C46.063,299.6 46.116,299.22 46.166,298.84C46.22,298.42 46.518,298.076 46.924,297.964C47.495,297.806 48.046,297.578 48.562,297.285C48.929,297.077 49.383,297.109 49.719,297.368C50.023,297.602 50.33,297.833 50.63,298.055C50.675,298.088 50.738,298.083 50.778,298.043L52.043,296.778C52.083,296.738 52.088,296.675 52.055,296.63C51.832,296.329 51.601,296.022 51.368,295.719C51.109,295.383 51.077,294.929 51.285,294.562C51.578,294.046 51.807,293.495 51.964,292.924C52.076,292.518 52.42,292.22 52.84,292.166C53.219,292.116 53.6,292.063 53.97,292.007C54.022,291.999 54.062,291.955 54.066,291.894L54.066,291.894ZM45,286.659C42.606,286.659 40.659,288.606 40.659,291C40.659,293.393 42.606,295.341 45,295.341C47.394,295.341 49.341,293.393 49.341,291C49.341,288.606 47.394,286.659 45,286.659ZM45,294.407C43.121,294.407 41.593,292.879 41.593,291C41.593,289.121 43.121,287.592 45,287.592C46.879,287.592 48.407,289.121 48.407,291C48.407,292.879 46.879,294.407 45,294.407Z" style="fill:white;fill-opacity:0.678431;"/>
    </g>
</svg>
