<?xml version="1.0" encoding="UTF-8" standalone="no"?>
<!DOCTYPE svg PUBLIC "-//W3C//DTD SVG 1.1//EN" "http://www.w3.org/Graphics/SVG/1.1/DTD/svg11.dtd">
<svg width="100%" height="100%" viewBox="0 0 20 20" version="1.1" xmlns="http://www.w3.org/2000/svg" xmlns:xlink="http://www.w3.org/1999/xlink" xml:space="preserve" xmlns:serif="http://www.serif.com/" style="fill-rule:evenodd;clip-rule:evenodd;stroke-linejoin:round;stroke-miterlimit:1.41421;">
    <g id="Shape-1" serif:id="Shape 1" transform="matrix(1,0,0,1,-1326.02,-150)">
        <path d="M1336.78,151C1337.33,151.003 1337.78,151.393 1337.87,151.929L1338.08,153.177C1338.52,153.309 1338.95,153.485 1339.35,153.7L1340.4,152.955C1340.59,152.82 1340.81,152.748 1341.04,152.748C1341.34,152.748 1341.62,152.865 1341.83,153.076L1342.95,154.196C1343.34,154.58 1343.38,155.185 1343.07,155.629L1342.32,156.67C1342.53,157.061 1342.7,157.471 1342.83,157.896L1344.09,158.11C1344.63,158.201 1345.02,158.663 1345.02,159.208L1345.02,160.791C1345.02,161.337 1344.62,161.799 1344.09,161.889L1342.82,162.1C1342.7,162.521 1342.52,162.931 1342.32,163.326L1343.06,164.371C1343.38,164.815 1343.32,165.42 1342.94,165.804L1341.82,166.924C1341.61,167.135 1341.33,167.251 1341.04,167.251C1340.8,167.251 1340.58,167.18 1340.39,167.045L1339.35,166.3C1338.96,166.507 1338.55,166.676 1338.12,166.808L1337.91,168.071C1337.82,168.609 1337.36,169 1336.81,169L1335.22,169C1334.68,169 1334.22,168.609 1334.13,168.071L1333.92,166.808C1333.51,166.68 1333.11,166.518 1332.73,166.319L1331.67,167.071C1331.48,167.206 1331.26,167.278 1331.03,167.278C1330.73,167.278 1330.45,167.161 1330.24,166.951L1329.12,165.83C1328.74,165.447 1328.69,164.841 1329,164.397L1329.74,163.367C1329.53,162.976 1329.36,162.566 1329.23,162.145L1327.95,161.927C1327.41,161.837 1327.02,161.374 1327.02,160.829L1327.02,159.246C1327.02,158.701 1327.41,158.238 1327.95,158.148L1329.2,157.937C1329.33,157.513 1329.49,157.103 1329.7,156.708L1328.95,155.651C1328.63,155.208 1328.68,154.602 1329.07,154.219L1330.19,153.098C1330.4,152.888 1330.68,152.771 1330.98,152.771C1331.21,152.771 1331.43,152.842 1331.62,152.978L1332.66,153.722C1333.05,153.512 1333.46,153.339 1333.88,153.207L1334.1,151.929C1334.19,151.393 1334.64,151.003 1335.19,151L1336.78,151ZM1344.01,160.791L1344.01,159.208C1344.01,159.16 1343.98,159.118 1343.93,159.111L1342.35,158.844C1342.15,158.814 1341.99,158.667 1341.94,158.471C1341.8,157.919 1341.58,157.388 1341.29,156.896C1341.19,156.723 1341.2,156.505 1341.31,156.343L1342.24,155.038C1342.27,154.997 1342.26,154.944 1342.23,154.91L1341.11,153.79C1341.08,153.764 1341.05,153.76 1341.04,153.76C1341.02,153.76 1341,153.767 1340.98,153.779L1339.68,154.711C1339.52,154.828 1339.31,154.835 1339.13,154.734C1338.63,154.437 1338.09,154.215 1337.52,154.072C1337.33,154.023 1337.18,153.861 1337.14,153.662L1336.88,152.094C1336.87,152.045 1336.83,152.011 1336.78,152.011L1335.2,152.011C1335.15,152.011 1335.11,152.045 1335.1,152.094L1334.83,153.685C1334.8,153.88 1334.65,154.038 1334.46,154.091C1333.91,154.234 1333.38,154.459 1332.89,154.753C1332.72,154.854 1332.5,154.847 1332.33,154.73L1331.04,153.805C1331.02,153.794 1331,153.786 1330.98,153.786C1330.96,153.786 1330.93,153.79 1330.91,153.816L1329.79,154.937C1329.76,154.971 1329.75,155.027 1329.78,155.065L1330.71,156.381C1330.83,156.542 1330.84,156.757 1330.74,156.93C1330.45,157.422 1330.24,157.956 1330.1,158.509C1330.05,158.705 1329.89,158.851 1329.69,158.885L1328.12,159.148C1328.07,159.156 1328.04,159.197 1328.04,159.246L1328.04,160.829C1328.04,160.878 1328.07,160.919 1328.12,160.927L1329.71,161.198C1329.9,161.231 1330.06,161.378 1330.12,161.57C1330.26,162.123 1330.48,162.653 1330.78,163.142C1330.88,163.315 1330.87,163.533 1330.76,163.698L1329.83,164.995C1329.8,165.037 1329.81,165.089 1329.84,165.123L1330.96,166.244C1330.99,166.27 1331.02,166.274 1331.03,166.274C1331.05,166.274 1331.07,166.266 1331.09,166.255L1332.4,165.319C1332.49,165.255 1332.6,165.225 1332.7,165.225C1332.78,165.225 1332.88,165.247 1332.95,165.292C1333.44,165.571 1333.96,165.785 1334.5,165.924C1334.69,165.973 1334.83,166.131 1334.87,166.33L1335.13,167.909C1335.14,167.958 1335.18,167.992 1335.23,167.992L1336.81,167.992C1336.86,167.989 1336.9,167.956 1336.91,167.909L1337.17,166.33C1337.2,166.135 1337.35,165.973 1337.55,165.924C1338.1,165.781 1338.63,165.563 1339.12,165.27C1339.29,165.168 1339.51,165.176 1339.67,165.292L1340.98,166.221C1340.99,166.232 1341.01,166.24 1341.04,166.24C1341.05,166.24 1341.08,166.236 1341.11,166.21L1342.23,165.089C1342.26,165.055 1342.26,164.999 1342.24,164.961L1341.31,163.653C1341.19,163.487 1341.18,163.273 1341.29,163.1C1341.58,162.608 1341.8,162.077 1341.94,161.525C1341.99,161.333 1342.15,161.186 1342.35,161.152L1343.92,160.889C1343.97,160.882 1344.01,160.844 1344.01,160.791L1344.01,160.791ZM1336.02,156.114C1333.88,156.114 1332.14,157.855 1332.14,159.998C1332.14,162.141 1333.88,163.882 1336.02,163.882C1338.16,163.882 1339.9,162.141 1339.9,159.998C1339.9,157.855 1338.16,156.114 1336.02,156.114ZM1336.02,162.867C1334.44,162.867 1333.15,161.581 1333.15,159.998C1333.15,158.415 1334.44,157.129 1336.02,157.129C1337.6,157.129 1338.89,158.415 1338.89,159.998C1338.89,161.581 1337.6,162.867 1336.02,162.867Z" style="fill:rgb(135,135,135);"/>
    </g>
</svg>
