<?xml version="1.0" encoding="UTF-8" standalone="no"?>
<!DOCTYPE svg PUBLIC "-//W3C//DTD SVG 1.1//EN" "http://www.w3.org/Graphics/SVG/1.1/DTD/svg11.dtd">
<svg width="100%" height="100%" viewBox="0 0 24 24" version="1.1" xmlns="http://www.w3.org/2000/svg" xmlns:xlink="http://www.w3.org/1999/xlink" xml:space="preserve" xmlns:serif="http://www.serif.com/" style="fill-rule:evenodd;clip-rule:evenodd;stroke-linejoin:round;stroke-miterlimit:1.41421;">
    <g id="Forma-1" serif:id="Forma 1" transform="matrix(1,0,0,1,-33.0161,-609.016)">
        <path d="M54.609,611.016C54.834,611.016 55.016,611.198 55.016,611.423L55.016,630.609C55.016,630.834 54.834,631.016 54.609,631.016C54.384,631.016 54.202,630.834 54.202,630.609L54.202,611.83L35.83,611.83L35.83,630.202L51.732,630.202C51.956,630.202 52.139,630.384 52.139,630.609C52.139,630.834 51.956,631.016 51.732,631.016L35.423,631.016C35.198,631.016 35.016,630.834 35.016,630.609L35.016,611.423C35.016,611.198 35.198,611.016 35.423,611.016L54.609,611.016ZM39.481,623.661C38.62,623.661 37.92,624.361 37.92,625.222C37.92,626.082 38.62,626.782 39.481,626.782C40.341,626.782 41.041,626.082 41.041,625.222C41.041,624.361 40.341,623.661 39.481,623.661ZM39.481,625.968C39.069,625.968 38.734,625.633 38.734,625.222C38.734,624.81 39.069,624.475 39.481,624.475C39.892,624.475 40.227,624.81 40.227,625.222C40.227,625.633 39.892,625.968 39.481,625.968ZM51.758,624.815C51.984,624.815 52.165,624.997 52.165,625.222C52.165,625.446 51.983,625.629 51.758,625.629L42.262,625.629C42.037,625.629 41.855,625.446 41.855,625.222C41.855,624.997 42.037,624.815 42.262,624.815L51.758,624.815ZM39.481,619.456C39.256,619.456 39.074,619.638 39.074,619.863C39.074,620.087 39.256,620.27 39.481,620.27C39.892,620.27 40.227,620.605 40.227,621.016C40.227,621.427 39.892,621.762 39.481,621.762C39.069,621.762 38.734,621.427 38.734,621.016C38.734,620.791 38.552,620.609 38.327,620.609C38.103,620.609 37.92,620.791 37.92,621.016C37.92,621.876 38.62,622.576 39.481,622.576C40.341,622.576 41.041,621.876 41.041,621.016C41.041,620.156 40.341,619.456 39.481,619.456ZM51.758,620.609C51.984,620.609 52.165,620.791 52.165,621.016C52.165,621.241 51.983,621.423 51.758,621.423L42.262,621.423C42.037,621.423 41.855,621.241 41.855,621.016C41.855,620.791 42.037,620.609 42.262,620.609L51.758,620.609ZM39.481,615.25C38.62,615.25 37.92,615.95 37.92,616.81C37.92,617.671 38.62,618.371 39.481,618.371C40.341,618.371 41.041,617.671 41.041,616.81C41.041,615.95 40.341,615.25 39.481,615.25ZM39.481,617.557C39.069,617.557 38.734,617.222 38.734,616.81C38.734,616.399 39.069,616.064 39.481,616.064C39.892,616.064 40.227,616.399 40.227,616.81C40.227,617.222 39.892,617.557 39.481,617.557ZM51.758,616.403C51.984,616.404 52.165,616.586 52.165,616.81C52.165,617.035 51.983,617.217 51.758,617.217L42.262,617.217C42.037,617.217 41.855,617.035 41.855,616.81C41.855,616.586 42.037,616.404 42.262,616.403L51.758,616.403Z" style="fill:white;fill-opacity:0.678431;"/>
    </g>
</svg>
