<?xml version="1.0" encoding="UTF-8" standalone="no"?>
<!DOCTYPE svg PUBLIC "-//W3C//DTD SVG 1.1//EN" "http://www.w3.org/Graphics/SVG/1.1/DTD/svg11.dtd">
<svg width="100%" height="100%" viewBox="0 0 20 20" version="1.1" xmlns="http://www.w3.org/2000/svg" xmlns:xlink="http://www.w3.org/1999/xlink" xml:space="preserve" xmlns:serif="http://www.serif.com/" style="fill-rule:evenodd;clip-rule:evenodd;stroke-linejoin:round;stroke-miterlimit:1.41421;">
    <g id="Forma-1" serif:id="Forma 1" transform="matrix(1,0,0,1,-1326,-109)">
        <path d="M1342.36,121.636C1341.38,120.656 1340.22,119.93 1338.94,119.491C1340.31,118.552 1341.2,116.98 1341.2,115.203C1341.2,112.334 1338.87,110 1336,110C1333.13,110 1330.8,112.334 1330.8,115.203C1330.8,116.98 1331.69,118.552 1333.06,119.491C1331.78,119.93 1330.62,120.656 1329.64,121.636C1327.94,123.336 1327,125.596 1327,128L1328.41,128C1328.41,123.813 1331.81,120.406 1336,120.406C1340.19,120.406 1343.59,123.813 1343.59,128L1345,128C1345,125.596 1344.06,123.336 1342.36,121.636ZM1336,119C1333.91,119 1332.2,117.297 1332.2,115.203C1332.2,113.109 1333.91,111.406 1336,111.406C1338.09,111.406 1339.8,113.109 1339.8,115.203C1339.8,117.297 1338.09,119 1336,119Z" style="fill:rgb(136,136,136);fill-rule:nonzero;"/>
    </g>
</svg>
